# xmcd
#
# Track frame offsets:
#	150
#	14934
#	28155
#	41067
#	56165
#	70652
#	82501
#	95740
#	109440
#	124009
#	138841
#	153336
#	161094
#	167719
#	174543
#	181151
#	194467
#	207803
#	220951
#	235668
#	251382
#	265773
#	278615
#	292925
#	307504
#	321408
#	336443
#
# Disc length: 4667 seconds
#
# Revision: 0
# Processed by: cddbd v1.5.2PL0 Copyright (c) Steve Scherf et al.
# Submitted via: dBpowerAMP V4.0
#
DISCID=8212391b
DTITLE=Duke Ellington - Black beaty disc 1
DYEAR=1924
DGENRE=Blues
TTITLE0=Choo Choo
TTITLE1=Everything is hosty totsy now
TTITLE2=The Creeper
TTITLE3=Black and tan fantasy
TTITLE4=Creole love call
TTITLE5=Jubilee Stomp
TTITLE6=East St. Louis Toodle Oo
TTITLE7=Black Beauty
TTITLE8=The Mooche
TTITLE9=Hot and bothered
TTITLE10=Doin the voom voom
TTITLE11=A nite at the cotton club
TTITLE12=Misty Mornin
TTITLE13=Goin´to town
TTITLE14=Freeze and melt
TTITLE15=Double check stomp
TTITLE16=Ring dem bells
TTITLE17=Mood indigo
TTITLE18=Rockin rhytm
TTITLE19=Echoes of the jungle
TTITLE20=It don´t mean a thing if it aint got that swing
TTITLE21=Lots o´fingers
TTITLE22=Lightning
TTITLE23=Bundle of blues
TTITLE24=Stompy Jones
TTITLE25=Saddest tale
TTITLE26=Echoes of Harlem
EXTD=Submitted by Thord Johansson.
EXTT0=
EXTT1=
EXTT2=
EXTT3=
EXTT4=
EXTT5=
EXTT6=
EXTT7=
EXTT8=
EXTT9=
EXTT10=
EXTT11=
EXTT12=
EXTT13=
EXTT14=
EXTT15=
EXTT16=
EXTT17=
EXTT18=
EXTT19=
EXTT20=
EXTT21=
EXTT22=
EXTT23=
EXTT24=
EXTT25=
EXTT26=
PLAYORDER=
